<?xml version="1.0" encoding="UTF-8" standalone="no"?>
<!DOCTYPE svg PUBLIC "-//W3C//DTD SVG 1.1//EN"
 "http://www.w3.org/Graphics/SVG/1.1/DTD/svg11.dtd">
<!-- Generated by graphviz version 2.40.1 (20161225.0304)
 -->
<!-- Title: G Pages: 1 -->
<svg width="681pt" height="1291pt"
 viewBox="0.00 0.00 681.00 1290.50" xmlns="http://www.w3.org/2000/svg" xmlns:xlink="http://www.w3.org/1999/xlink">
<g id="graph0" class="graph" transform="scale(1 1) rotate(0) translate(36 1254.5)">
<title>G</title>
<polygon fill="#f7f7f7" stroke="transparent" points="-36,36 -36,-1254.5 645,-1254.5 645,36 -36,36"/>
<!-- appmodelscustomercontact -->
<g id="node1" class="node">
<title>appmodelscustomercontact</title>
<polygon fill="none" stroke="#000000" points="253,-703 8,-703 8,0 253,0 253,-703"/>
<polygon fill="#d3d3d3" stroke="transparent" points="8.5,-665.5 8.5,-702.5 253.5,-702.5 253.5,-665.5 8.5,-665.5"/>
<polygon fill="none" stroke="#000000" points="8.5,-665.5 8.5,-702.5 253.5,-702.5 253.5,-665.5 8.5,-665.5"/>
<text text-anchor="start" x="68.5" y="-680.3" font-family="Helvetica Neue" font-size="14.00" fill="#333333">CustomerContact</text>
<polygon fill="#ffffff" stroke="transparent" points="8.5,-628.5 8.5,-665.5 253.5,-665.5 253.5,-628.5 8.5,-628.5"/>
<polygon fill="none" stroke="#000000" points="8.5,-628.5 8.5,-665.5 253.5,-665.5 253.5,-628.5 8.5,-628.5"/>
<text text-anchor="start" x="19.5" y="-643.3" font-family="Helvetica Neue" font-size="14.00" fill="#333333">id (bigint)</text>
<polygon fill="#ffffff" stroke="transparent" points="8.5,-591.5 8.5,-628.5 253.5,-628.5 253.5,-591.5 8.5,-591.5"/>
<polygon fill="none" stroke="#000000" points="8.5,-591.5 8.5,-628.5 253.5,-628.5 253.5,-591.5 8.5,-591.5"/>
<text text-anchor="start" x="19.5" y="-606.3" font-family="Helvetica Neue" font-size="14.00" fill="#333333">customer_id (bigint)</text>
<polygon fill="#ffffff" stroke="transparent" points="8.5,-554.5 8.5,-591.5 253.5,-591.5 253.5,-554.5 8.5,-554.5"/>
<polygon fill="none" stroke="#000000" points="8.5,-554.5 8.5,-591.5 253.5,-591.5 253.5,-554.5 8.5,-554.5"/>
<text text-anchor="start" x="19.5" y="-569.3" font-family="Helvetica Neue" font-size="14.00" fill="#333333">display_name (string)</text>
<polygon fill="#ffffff" stroke="transparent" points="8.5,-517.5 8.5,-554.5 253.5,-554.5 253.5,-517.5 8.5,-517.5"/>
<polygon fill="none" stroke="#000000" points="8.5,-517.5 8.5,-554.5 253.5,-554.5 253.5,-517.5 8.5,-517.5"/>
<text text-anchor="start" x="19.5" y="-532.3" font-family="Helvetica Neue" font-size="14.00" fill="#333333">given_name (string)</text>
<polygon fill="#ffffff" stroke="transparent" points="8.5,-480.5 8.5,-517.5 253.5,-517.5 253.5,-480.5 8.5,-480.5"/>
<polygon fill="none" stroke="#000000" points="8.5,-480.5 8.5,-517.5 253.5,-517.5 253.5,-480.5 8.5,-480.5"/>
<text text-anchor="start" x="19.5" y="-495.3" font-family="Helvetica Neue" font-size="14.00" fill="#333333">middle_name (string)</text>
<polygon fill="#ffffff" stroke="transparent" points="8.5,-443.5 8.5,-480.5 253.5,-480.5 253.5,-443.5 8.5,-443.5"/>
<polygon fill="none" stroke="#000000" points="8.5,-443.5 8.5,-480.5 253.5,-480.5 253.5,-443.5 8.5,-443.5"/>
<text text-anchor="start" x="19.5" y="-458.3" font-family="Helvetica Neue" font-size="14.00" fill="#333333">prefix (string)</text>
<polygon fill="#ffffff" stroke="transparent" points="8.5,-406.5 8.5,-443.5 253.5,-443.5 253.5,-406.5 8.5,-406.5"/>
<polygon fill="none" stroke="#000000" points="8.5,-406.5 8.5,-443.5 253.5,-443.5 253.5,-406.5 8.5,-406.5"/>
<text text-anchor="start" x="19.5" y="-421.3" font-family="Helvetica Neue" font-size="14.00" fill="#333333">suffix (string)</text>
<polygon fill="#ffffff" stroke="transparent" points="8.5,-369.5 8.5,-406.5 253.5,-406.5 253.5,-369.5 8.5,-369.5"/>
<polygon fill="none" stroke="#000000" points="8.5,-369.5 8.5,-406.5 253.5,-406.5 253.5,-369.5 8.5,-369.5"/>
<text text-anchor="start" x="19.5" y="-384.3" font-family="Helvetica Neue" font-size="14.00" fill="#333333">family_name (string)</text>
<polygon fill="#ffffff" stroke="transparent" points="8.5,-332.5 8.5,-369.5 253.5,-369.5 253.5,-332.5 8.5,-332.5"/>
<polygon fill="none" stroke="#000000" points="8.5,-332.5 8.5,-369.5 253.5,-369.5 253.5,-332.5 8.5,-332.5"/>
<text text-anchor="start" x="19.5" y="-347.3" font-family="Helvetica Neue" font-size="14.00" fill="#333333">company (string)</text>
<polygon fill="#ffffff" stroke="transparent" points="8.5,-295.5 8.5,-332.5 253.5,-332.5 253.5,-295.5 8.5,-295.5"/>
<polygon fill="none" stroke="#000000" points="8.5,-295.5 8.5,-332.5 253.5,-332.5 253.5,-295.5 8.5,-295.5"/>
<text text-anchor="start" x="19.5" y="-310.3" font-family="Helvetica Neue" font-size="14.00" fill="#333333">job_title (string)</text>
<polygon fill="#ffffff" stroke="transparent" points="8.5,-258.5 8.5,-295.5 253.5,-295.5 253.5,-258.5 8.5,-258.5"/>
<polygon fill="none" stroke="#000000" points="8.5,-258.5 8.5,-295.5 253.5,-295.5 253.5,-258.5 8.5,-258.5"/>
<text text-anchor="start" x="19.5" y="-273.3" font-family="Helvetica Neue" font-size="14.00" fill="#333333">emails (json)</text>
<polygon fill="#ffffff" stroke="transparent" points="8.5,-221.5 8.5,-258.5 253.5,-258.5 253.5,-221.5 8.5,-221.5"/>
<polygon fill="none" stroke="#000000" points="8.5,-221.5 8.5,-258.5 253.5,-258.5 253.5,-221.5 8.5,-221.5"/>
<text text-anchor="start" x="19.5" y="-236.3" font-family="Helvetica Neue" font-size="14.00" fill="#333333">phones (json)</text>
<polygon fill="#ffffff" stroke="transparent" points="8.5,-184.5 8.5,-221.5 253.5,-221.5 253.5,-184.5 8.5,-184.5"/>
<polygon fill="none" stroke="#000000" points="8.5,-184.5 8.5,-221.5 253.5,-221.5 253.5,-184.5 8.5,-184.5"/>
<text text-anchor="start" x="19.5" y="-199.3" font-family="Helvetica Neue" font-size="14.00" fill="#333333">postal_addresses (string)</text>
<polygon fill="#ffffff" stroke="transparent" points="8.5,-147.5 8.5,-184.5 253.5,-184.5 253.5,-147.5 8.5,-147.5"/>
<polygon fill="none" stroke="#000000" points="8.5,-147.5 8.5,-184.5 253.5,-184.5 253.5,-147.5 8.5,-147.5"/>
<text text-anchor="start" x="19.5" y="-162.3" font-family="Helvetica Neue" font-size="14.00" fill="#333333">birthday (string)</text>
<polygon fill="#ffffff" stroke="transparent" points="8.5,-110.5 8.5,-147.5 253.5,-147.5 253.5,-110.5 8.5,-110.5"/>
<polygon fill="none" stroke="#000000" points="8.5,-110.5 8.5,-147.5 253.5,-147.5 253.5,-110.5 8.5,-110.5"/>
<text text-anchor="start" x="19.5" y="-125.3" font-family="Helvetica Neue" font-size="14.00" fill="#333333">android_account_type (string)</text>
<polygon fill="#ffffff" stroke="transparent" points="8.5,-73.5 8.5,-110.5 253.5,-110.5 253.5,-73.5 8.5,-73.5"/>
<polygon fill="none" stroke="#000000" points="8.5,-73.5 8.5,-110.5 253.5,-110.5 253.5,-73.5 8.5,-73.5"/>
<text text-anchor="start" x="19.5" y="-88.3" font-family="Helvetica Neue" font-size="14.00" fill="#333333">android_account_name (string)</text>
<polygon fill="#ffffff" stroke="transparent" points="8.5,-36.5 8.5,-73.5 253.5,-73.5 253.5,-36.5 8.5,-36.5"/>
<polygon fill="none" stroke="#000000" points="8.5,-36.5 8.5,-73.5 253.5,-73.5 253.5,-36.5 8.5,-36.5"/>
<text text-anchor="start" x="19.5" y="-51.3" font-family="Helvetica Neue" font-size="14.00" fill="#333333">created_at (datetime)</text>
<polygon fill="#ffffff" stroke="transparent" points="8.5,.5 8.5,-36.5 253.5,-36.5 253.5,.5 8.5,.5"/>
<polygon fill="none" stroke="#000000" points="8.5,.5 8.5,-36.5 253.5,-36.5 253.5,.5 8.5,.5"/>
<text text-anchor="start" x="19.5" y="-14.3" font-family="Helvetica Neue" font-size="14.00" fill="#333333">updated_at (datetime)</text>
</g>
<!-- appmodelscustomer -->
<g id="node2" class="node">
<title>appmodelscustomer</title>
<polygon fill="none" stroke="#000000" points="609,-666 410,-666 410,-333 609,-333 609,-666"/>
<polygon fill="#d3d3d3" stroke="transparent" points="410.5,-628.5 410.5,-665.5 609.5,-665.5 609.5,-628.5 410.5,-628.5"/>
<polygon fill="none" stroke="#000000" points="410.5,-628.5 410.5,-665.5 609.5,-665.5 609.5,-628.5 410.5,-628.5"/>
<text text-anchor="start" x="475" y="-643.3" font-family="Helvetica Neue" font-size="14.00" fill="#333333">Customer</text>
<polygon fill="#ffffff" stroke="transparent" points="410.5,-591.5 410.5,-628.5 609.5,-628.5 609.5,-591.5 410.5,-591.5"/>
<polygon fill="none" stroke="#000000" points="410.5,-591.5 410.5,-628.5 609.5,-628.5 609.5,-591.5 410.5,-591.5"/>
<text text-anchor="start" x="421.5" y="-606.3" font-family="Helvetica Neue" font-size="14.00" fill="#333333">id (bigint)</text>
<polygon fill="#ffffff" stroke="transparent" points="410.5,-554.5 410.5,-591.5 609.5,-591.5 609.5,-554.5 410.5,-554.5"/>
<polygon fill="none" stroke="#000000" points="410.5,-554.5 410.5,-591.5 609.5,-591.5 609.5,-554.5 410.5,-554.5"/>
<text text-anchor="start" x="421.5" y="-569.3" font-family="Helvetica Neue" font-size="14.00" fill="#333333">name (string)</text>
<polygon fill="#ffffff" stroke="transparent" points="410.5,-517.5 410.5,-554.5 609.5,-554.5 609.5,-517.5 410.5,-517.5"/>
<polygon fill="none" stroke="#000000" points="410.5,-517.5 410.5,-554.5 609.5,-554.5 609.5,-517.5 410.5,-517.5"/>
<text text-anchor="start" x="421.5" y="-532.3" font-family="Helvetica Neue" font-size="14.00" fill="#333333">address (text)</text>
<polygon fill="#ffffff" stroke="transparent" points="410.5,-480.5 410.5,-517.5 609.5,-517.5 609.5,-480.5 410.5,-480.5"/>
<polygon fill="none" stroke="#000000" points="410.5,-480.5 410.5,-517.5 609.5,-517.5 609.5,-480.5 410.5,-480.5"/>
<text text-anchor="start" x="421.5" y="-495.3" font-family="Helvetica Neue" font-size="14.00" fill="#333333">phone_number (string)</text>
<polygon fill="#ffffff" stroke="transparent" points="410.5,-443.5 410.5,-480.5 609.5,-480.5 609.5,-443.5 410.5,-443.5"/>
<polygon fill="none" stroke="#000000" points="410.5,-443.5 410.5,-480.5 609.5,-480.5 609.5,-443.5 410.5,-443.5"/>
<text text-anchor="start" x="421.5" y="-458.3" font-family="Helvetica Neue" font-size="14.00" fill="#333333">contact_status (boolean)</text>
<polygon fill="#ffffff" stroke="transparent" points="410.5,-406.5 410.5,-443.5 609.5,-443.5 609.5,-406.5 410.5,-406.5"/>
<polygon fill="none" stroke="#000000" points="410.5,-406.5 410.5,-443.5 609.5,-443.5 609.5,-406.5 410.5,-406.5"/>
<text text-anchor="start" x="421.5" y="-421.3" font-family="Helvetica Neue" font-size="14.00" fill="#333333">phone_status (boolean)</text>
<polygon fill="#ffffff" stroke="transparent" points="410.5,-369.5 410.5,-406.5 609.5,-406.5 609.5,-369.5 410.5,-369.5"/>
<polygon fill="none" stroke="#000000" points="410.5,-369.5 410.5,-406.5 609.5,-406.5 609.5,-369.5 410.5,-369.5"/>
<text text-anchor="start" x="421.5" y="-384.3" font-family="Helvetica Neue" font-size="14.00" fill="#333333">created_at (datetime)</text>
<polygon fill="#ffffff" stroke="transparent" points="410.5,-332.5 410.5,-369.5 609.5,-369.5 609.5,-332.5 410.5,-332.5"/>
<polygon fill="none" stroke="#000000" points="410.5,-332.5 410.5,-369.5 609.5,-369.5 609.5,-332.5 410.5,-332.5"/>
<text text-anchor="start" x="421.5" y="-347.3" font-family="Helvetica Neue" font-size="14.00" fill="#333333">updated_at (datetime)</text>
</g>
<!-- appmodelscustomercontact&#45;&gt;appmodelscustomer -->
<g id="edge1" class="edge">
<title>appmodelscustomercontact:customer_id&#45;&gt;appmodelscustomer:id</title>
<path fill="none" stroke="#f77f00" stroke-width="1.8" d="M263.8012,-610.5C294.227,-610.5 382.961,-610.5 405.3322,-610.5"/>
<polygon fill="#f77f00" stroke="#f77f00" stroke-width="1.8" points="263.5,-610.5001 253.5,-606 258.5,-610.5 253.5,-610.5 253.5,-610.5 253.5,-610.5 258.5,-610.5 253.5,-615 263.5,-610.5001 263.5,-610.5001"/>
<polygon fill="#f77f00" stroke="#f77f00" stroke-width="1.8" points="409.4999,-605.5 409.5001,-615.5 407.5001,-615.5001 407.4999,-605.5001 409.4999,-605.5"/>
<polyline fill="none" stroke="#f77f00" stroke-width="1.8" points="410.5,-610.5 405.5,-610.5001 "/>
<text text-anchor="middle" x="335.5" y="-614.3" font-family="Helvetica Neue" font-size="14.00" fill="#000000"> </text>
<text text-anchor="middle" x="298.0667" y="-599.3" font-family="Helvetica Neue" font-size="14.00" fill="#000000">BelongsTo</text>
<text text-anchor="middle" x="298.0667" y="-584.3" font-family="Helvetica Neue" font-size="14.00" fill="#000000">customer</text>
</g>
<!-- appmodelsuser -->
<g id="node3" class="node">
<title>appmodelsuser</title>
<polygon fill="none" stroke="#000000" points="261,-1218.5 0,-1218.5 0,-774.5 261,-774.5 261,-1218.5"/>
<polygon fill="#d3d3d3" stroke="transparent" points=".5,-1181.5 .5,-1218.5 261.5,-1218.5 261.5,-1181.5 .5,-1181.5"/>
<polygon fill="none" stroke="#000000" points=".5,-1181.5 .5,-1218.5 261.5,-1218.5 261.5,-1181.5 .5,-1181.5"/>
<text text-anchor="start" x="114" y="-1196.3" font-family="Helvetica Neue" font-size="14.00" fill="#333333">User</text>
<polygon fill="#ffffff" stroke="transparent" points=".5,-1144.5 .5,-1181.5 261.5,-1181.5 261.5,-1144.5 .5,-1144.5"/>
<polygon fill="none" stroke="#000000" points=".5,-1144.5 .5,-1181.5 261.5,-1181.5 261.5,-1144.5 .5,-1144.5"/>
<text text-anchor="start" x="11.5" y="-1159.3" font-family="Helvetica Neue" font-size="14.00" fill="#333333">id (bigint)</text>
<polygon fill="#ffffff" stroke="transparent" points=".5,-1107.5 .5,-1144.5 261.5,-1144.5 261.5,-1107.5 .5,-1107.5"/>
<polygon fill="none" stroke="#000000" points=".5,-1107.5 .5,-1144.5 261.5,-1144.5 261.5,-1107.5 .5,-1107.5"/>
<text text-anchor="start" x="11.5" y="-1122.3" font-family="Helvetica Neue" font-size="14.00" fill="#333333">name (string)</text>
<polygon fill="#ffffff" stroke="transparent" points=".5,-1070.5 .5,-1107.5 261.5,-1107.5 261.5,-1070.5 .5,-1070.5"/>
<polygon fill="none" stroke="#000000" points=".5,-1070.5 .5,-1107.5 261.5,-1107.5 261.5,-1070.5 .5,-1070.5"/>
<text text-anchor="start" x="11.5" y="-1085.3" font-family="Helvetica Neue" font-size="14.00" fill="#333333">email (string)</text>
<polygon fill="#ffffff" stroke="transparent" points=".5,-1033.5 .5,-1070.5 261.5,-1070.5 261.5,-1033.5 .5,-1033.5"/>
<polygon fill="none" stroke="#000000" points=".5,-1033.5 .5,-1070.5 261.5,-1070.5 261.5,-1033.5 .5,-1033.5"/>
<text text-anchor="start" x="11.5" y="-1048.3" font-family="Helvetica Neue" font-size="14.00" fill="#333333">email_verified_at (datetime)</text>
<polygon fill="#ffffff" stroke="transparent" points=".5,-996.5 .5,-1033.5 261.5,-1033.5 261.5,-996.5 .5,-996.5"/>
<polygon fill="none" stroke="#000000" points=".5,-996.5 .5,-1033.5 261.5,-1033.5 261.5,-996.5 .5,-996.5"/>
<text text-anchor="start" x="11.5" y="-1011.3" font-family="Helvetica Neue" font-size="14.00" fill="#333333">password (string)</text>
<polygon fill="#ffffff" stroke="transparent" points=".5,-959.5 .5,-996.5 261.5,-996.5 261.5,-959.5 .5,-959.5"/>
<polygon fill="none" stroke="#000000" points=".5,-959.5 .5,-996.5 261.5,-996.5 261.5,-959.5 .5,-959.5"/>
<text text-anchor="start" x="11.5" y="-974.3" font-family="Helvetica Neue" font-size="14.00" fill="#333333">two_factor_secret (text)</text>
<polygon fill="#ffffff" stroke="transparent" points=".5,-922.5 .5,-959.5 261.5,-959.5 261.5,-922.5 .5,-922.5"/>
<polygon fill="none" stroke="#000000" points=".5,-922.5 .5,-959.5 261.5,-959.5 261.5,-922.5 .5,-922.5"/>
<text text-anchor="start" x="11.5" y="-937.3" font-family="Helvetica Neue" font-size="14.00" fill="#333333">two_factor_recovery_codes (text)</text>
<polygon fill="#ffffff" stroke="transparent" points=".5,-885.5 .5,-922.5 261.5,-922.5 261.5,-885.5 .5,-885.5"/>
<polygon fill="none" stroke="#000000" points=".5,-885.5 .5,-922.5 261.5,-922.5 261.5,-885.5 .5,-885.5"/>
<text text-anchor="start" x="11.5" y="-900.3" font-family="Helvetica Neue" font-size="14.00" fill="#333333">remember_token (string)</text>
<polygon fill="#ffffff" stroke="transparent" points=".5,-848.5 .5,-885.5 261.5,-885.5 261.5,-848.5 .5,-848.5"/>
<polygon fill="none" stroke="#000000" points=".5,-848.5 .5,-885.5 261.5,-885.5 261.5,-848.5 .5,-848.5"/>
<text text-anchor="start" x="11.5" y="-863.3" font-family="Helvetica Neue" font-size="14.00" fill="#333333">profile_photo_path (text)</text>
<polygon fill="#ffffff" stroke="transparent" points=".5,-811.5 .5,-848.5 261.5,-848.5 261.5,-811.5 .5,-811.5"/>
<polygon fill="none" stroke="#000000" points=".5,-811.5 .5,-848.5 261.5,-848.5 261.5,-811.5 .5,-811.5"/>
<text text-anchor="start" x="11.5" y="-826.3" font-family="Helvetica Neue" font-size="14.00" fill="#333333">created_at (datetime)</text>
<polygon fill="#ffffff" stroke="transparent" points=".5,-774.5 .5,-811.5 261.5,-811.5 261.5,-774.5 .5,-774.5"/>
<polygon fill="none" stroke="#000000" points=".5,-774.5 .5,-811.5 261.5,-811.5 261.5,-774.5 .5,-774.5"/>
<text text-anchor="start" x="11.5" y="-789.3" font-family="Helvetica Neue" font-size="14.00" fill="#333333">updated_at (datetime)</text>
</g>
</g>
</svg>
